HIERARCHY
ROOT Hips
{
 OFFSET 0.000000 0.000000 0.000000
 CHANNELS 6 Xposition Yposition Zposition Yrotation Xrotation Zrotation
 JOINT Chest
 {
  OFFSET 0.000000 10.354800 0.006500
  CHANNELS 3 Yrotation Xrotation Zrotation
  JOINT Chest2
  {
   OFFSET 0.000000 10.435800 -0.013200
   CHANNELS 3 Yrotation Xrotation Zrotation
   JOINT Chest3
   {
    OFFSET 0.000000 10.393700 0.000000
    CHANNELS 3 Yrotation Xrotation Zrotation
    JOINT Chest4
    {
     OFFSET 0.000000 10.383100 0.000000
     CHANNELS 3 Yrotation Xrotation Zrotation
     JOINT Neck
     {
      OFFSET 0.000000 15.694000 0.000000
      CHANNELS 3 Yrotation Xrotation Zrotation
      JOINT Head
      {
       OFFSET 0.000000 9.711000 -0.028000
       CHANNELS 3 Yrotation Xrotation Zrotation
       End Site
       {
        OFFSET 0.000000 18.578700 -0.014800
       }
      }
     }
     JOINT RightCollar
     {
      OFFSET -3.157200 10.367500 0.000000
      CHANNELS 3 Yrotation Xrotation Zrotation
      JOINT RightShoulder
      {
       OFFSET -14.482500 0.000000 0.000000
       CHANNELS 3 Yrotation Xrotation Zrotation
       JOINT RightElbow
       {
        OFFSET 0.000000 -31.707800 0.000000
        CHANNELS 3 Yrotation Xrotation Zrotation
        JOINT RightWrist
        {
         OFFSET 0.000000 -25.659300 0.000000
         CHANNELS 3 Yrotation Xrotation Zrotation
         End Site
         {
          OFFSET 0.000000 -18.994300 0.000000
         }
        }
       }
      }
     }
     JOINT LeftCollar
     {
      OFFSET 3.157200 10.367500 0.000000
      CHANNELS 3 Yrotation Xrotation Zrotation
      JOINT LeftShoulder
      {
       OFFSET 14.482500 0.000000 0.000000
       CHANNELS 3 Yrotation Xrotation Zrotation
       JOINT LeftElbow
       {
        OFFSET 0.000000 -31.707800 0.000000
        CHANNELS 3 Yrotation Xrotation Zrotation
        JOINT LeftWrist
        {
         OFFSET 0.000000 -25.659300 0.000000
         CHANNELS 3 Yrotation Xrotation Zrotation
         End Site
         {
          OFFSET 0.000000 -18.994300 0.000000
         }
        }
       }
      }
     }
    }
   }
  }
 }
 JOINT RightHip
 {
  OFFSET -8.365600 -0.032100 -0.003200
  CHANNELS 3 Yrotation Xrotation Zrotation
  JOINT RightKnee
  {
   OFFSET 0.000000 -43.980000 0.003100
   CHANNELS 3 Yrotation Xrotation Zrotation
   JOINT RightAnkle
   {
    OFFSET 0.000000 -42.882800 0.005200
    CHANNELS 3 Yrotation Xrotation Zrotation
    JOINT RightToe
    {
     OFFSET 0.000000 -4.915500 10.826300
     CHANNELS 3 Yrotation Xrotation Zrotation
     End Site
     {
      OFFSET 0.000000 -1.517500 6.175900
     }
    }
   }
  }
 }
 JOINT LeftHip
 {
  OFFSET 8.365600 -0.032100 -0.003200
  CHANNELS 3 Yrotation Xrotation Zrotation
  JOINT LeftKnee
  {
   OFFSET 0.000000 -43.980000 0.003100
   CHANNELS 3 Yrotation Xrotation Zrotation
   JOINT LeftAnkle
   {
    OFFSET 0.000000 -42.882800 0.005200
    CHANNELS 3 Yrotation Xrotation Zrotation
    JOINT LeftToe
    {
     OFFSET 0.000000 -4.915500 10.826300
     CHANNELS 3 Yrotation Xrotation Zrotation
     End Site
     {
      OFFSET 0.000000 -1.517500 6.175900
     }
    }
   }
  }
 }
}
MOTION
Frames: 13
Frame Time: 0.008333
0.000000 91.618600 0.000000 0.000000 -5.767877 0.000000 0.000000 11.653817 0.000000 0.000000 -5.885947 0.000000 0.000000 -0.000000 0.000000 0.000000 -0.000000 0.000000 0.000000 12.528835 0.000000 0.000000 0.711642 0.000000 0.000000 -0.000000 0.000000 0.000000 0.000000 -90.000000 0.000000 -2.309062 0.000000 0.000000 2.309062 0.000000 0.000000 -0.000000 0.000000 0.000000 -0.000000 90.000000 0.000000 -2.309062 0.000000 0.000000 2.309062 0.000000 0.000000 8.520406 0.000000 0.000000 1.905762 0.000000 -0.000000 -4.658285 0.000000 0.000000 -0.000000 0.000000 0.000000 8.520406 0.000000 0.000000 1.905762 0.000000 -0.000000 -4.658285 0.000000 0.000000 -0.000000 0.000000
5.387274 126.389768 45.260204 171.807483 -18.256050 -3.333104 -0.013195 11.746310 2.944946 -0.021218 0.866207 0.214313 -0.034470 1.480927 0.366210 -0.055340 10.733325 2.669804 -1.243100 22.390804 -3.928050 -0.443485 -1.715865 -3.944279 8.124953 0.845594 -9.191976 7.151573 -36.590347 -38.384640 -115.100867 -53.581372 119.900534 -24.435612 -11.725932 -21.601615 -4.246203 5.748364 2.030407 13.546279 -40.592998 4.054239 111.341431 -54.729555 -116.931276 29.825678 -14.002546 9.135142 9.682324 -64.054138 -4.830290 -86.074632 79.069544 -79.271653 4.696351 7.982009 -16.643721 -0.003647 -0.009035 -0.001656 -22.379494 -64.194554 5.978614 104.019197 84.923318 97.587076 -5.190654 -23.183994 -0.403918 0.003435 -0.004057 0.001559
5.387217 126.387667 45.257153 171.796985 -18.225899 -3.352248 -0.013178 11.712890 2.954445 -0.022219 0.859538 0.213867 -0.035903 1.469808 0.365664 -0.075929 10.675384 2.678295 -1.230197 22.364108 -3.909120 -0.432508 -1.719998 -3.934636 8.151666 0.888254 -9.187379 7.163489 -36.641393 -38.394421 -114.998404 -53.608923 119.809327 -24.392025 -11.742504 -21.579663 -4.252460 5.752383 2.024389 13.584164 -40.570252 3.992669 111.214434 -54.699694 -116.786858 29.823846 -14.023039 9.190953 9.695456 -64.074433 -4.826819 -86.098438 79.069668 -79.289012 4.697005 7.967857 -16.634630 -0.001724 -0.009062 -0.000783 -22.399457 -64.220637 6.018853 104.500377 84.944295 98.065259 -5.184847 -23.191364 -0.370524 -0.001273 -0.000033 -0.000578
5.387662 126.384776 45.255392 171.787595 -18.182837 -3.379319 -0.017151 11.664210 2.971521 -0.022779 0.852918 0.213884 -0.036924 1.458741 0.365679 -0.072347 10.666319 2.688253 -1.235272 22.315422 -3.888068 -0.429427 -1.737719 -3.918517 8.122531 0.790699 -9.186140 7.224420 -36.607077 -38.398082 -114.939771 -53.642793 119.746804 -24.386069 -11.747630 -21.567365 -4.300687 5.655876 2.038186 13.637993 -40.464425 3.968163 111.119448 -54.633161 -116.680930 29.828545 -14.037136 9.262809 9.700044 -64.105705 -4.820558 -86.071736 79.074140 -79.246240 4.704569 7.965995 -16.643467 0.003289 -0.012856 0.001493 -22.418110 -64.259683 6.056268 104.864763 84.961646 98.450988 -5.171359 -23.195378 -0.353148 0.000234 0.002993 0.000106
5.385989 126.381800 45.252344 171.783862 -18.141843 -3.398108 -0.030113 11.615265 2.979294 -0.023717 0.846065 0.213885 -0.038656 1.447470 0.365762 -0.068166 10.659318 2.697275 -1.230475 22.310891 -3.879857 -0.439293 -1.777048 -3.881953 8.102144 0.734690 -9.184574 7.285262 -36.607802 -38.414136 -114.879038 -53.666450 119.675593 -24.388752 -11.753511 -21.559338 -4.332937 5.596122 2.054988 13.664353 -40.437440 3.915969 110.995708 -54.615436 -116.538752 29.840780 -14.047255 9.353326 9.728250 -64.134162 -4.842186 -86.120674 79.078222 -79.286338 4.700744 7.952075 -16.639734 0.004202 -0.012341 0.001908 -22.383988 -64.308058 6.016529 105.164400 84.956784 98.796434 -5.146616 -23.198362 -0.347139 -0.003169 0.001512 -0.001439
5.381372 126.379628 45.245433 171.792673 -18.119358 -3.403002 -0.055389 11.586141 2.969172 -0.024184 0.839339 0.214039 -0.039479 1.436295 0.365928 -0.097022 10.572683 2.717344 -1.219024 22.344451 -3.863032 -0.436048 -1.759243 -3.871894 8.117142 0.775376 -9.187875 7.343070 -36.614020 -38.439252 -114.873486 -53.669370 119.637853 -24.406908 -11.727401 -21.561064 -4.312859 5.671199 2.036578 13.634270 -40.470268 3.896382 110.886493 -54.590671 -116.405879 29.862392 -14.052908 9.456224 9.792052 -64.139158 -4.913354 -86.262274 79.075513 -79.429841 4.724971 7.916742 -16.608224 -0.001557 -0.006347 -0.000707 -22.363944 -64.338341 5.973495 105.327762 84.941676 98.980176 -5.143662 -23.201675 -0.342426 -0.000703 -0.001096 -0.000319
5.379051 126.377409 45.239636 171.786488 -18.095595 -3.417215 -0.083654 11.552886 2.969438 -0.031496 0.824629 0.213414 -0.016377 1.441230 0.371254 -0.116496 10.515327 2.734770 -1.216384 22.347441 -3.839451 -0.426167 -1.726689 -3.880742 8.131795 0.778297 -9.195605 7.384461 -36.574749 -38.449428 -114.829969 -53.671427 119.590152 -24.412183 -11.747818 -21.552969 -4.318159 5.654355 2.042099 13.609905 -40.428893 3.897219 110.801478 -54.547463 -116.297540 29.892682 -14.056664 9.561782 9.852789 -64.147614 -4.964998 -86.305716 79.078995 -79.453304 4.728043 7.905726 -16.594596 -0.000468 -0.008735 -0.000213 -22.374395 -64.363818 5.981610 105.722345 84.957396 99.384549 -5.109847 -23.222934 -0.335456 0.002009 -0.002264 0.000912
5.381339 126.374344 45.238759 171.763255 -18.052880 -3.455266 -0.084082 11.498704 3.002774 -0.026010 0.820568 0.215239 -0.020112 1.431887 0.372517 -0.123085 10.474195 2.750420 -1.209838 22.366123 -3.829423 -0.414382 -1.693153 -3.901549 8.144314 0.765758 -9.200095 7.451548 -36.579583 -38.493064 -114.755429 -53.672997 119.488061 -24.423826 -11.714803 -21.557945 -4.323623 5.626007 2.054829 13.592743 -40.374203 3.898420 110.726468 -54.494928 -116.222301 29.928291 -14.062742 9.663268 9.872186 -64.176112 -4.956507 -86.299869 79.086825 -79.423599 4.735273 7.896378 -16.584368 -0.000844 -0.007458 -0.000383 -22.466996 -64.393131 6.100782 106.353465 84.995645 100.010428 -5.042718 -23.265621 -0.328508 0.005976 0.001332 0.002713
5.382016 126.370948 45.239189 171.748320 -18.006201 -3.487706 -0.088747 11.441129 3.030611 -0.014728 0.823905 0.217957 -0.029975 1.413005 0.370532 -0.134496 10.434205 2.769234 -1.194510 22.417413 -3.842630 -0.458934 -1.794178 -3.781601 8.165103 0.794693 -9.208196 7.500215 -36.626257 -38.534903 -114.757114 -53.662699 119.448360 -24.450492 -11.668579 -21.559655 -4.318406 5.616591 2.061421 13.604046 -40.307544 3.886269 110.663836 -54.424548 -116.208789 29.963378 -14.071652 9.754529 9.903665 -64.209895 -4.967599 -86.279220 79.092803 -79.372633 4.731323 7.895943 -16.581860 0.003782 -0.010766 0.001717 -22.523027 -64.437187 6.170271 106.693785 85.001123 100.367307 -5.036808 -23.278790 -0.323195 0.004387 0.001344 0.001992
5.382798 126.367796 45.239839 171.734096 -17.964941 -3.520594 -0.093453 11.385194 3.060284 -0.005292 0.831063 0.219308 -0.043647 1.394331 0.369289 -0.140392 10.394825 2.791099 -1.211946 22.363635 -3.789856 -0.437730 -1.729153 -3.820469 8.167280 0.763327 -9.213966 7.553055 -36.583985 -38.553350 -114.749633 -53.667490 119.420720 -24.451772 -11.705440 -21.522847 -4.313843 5.608234 2.066791 13.559127 -40.296475 3.901519 110.574956 -54.386652 -116.118262 29.991593 -14.081233 9.825595 9.917777 -64.236258 -4.967714 -86.227482 79.105181 -79.294196 4.726651 7.893871 -16.578674 0.005832 -0.012808 0.002647 -22.508214 -64.489090 6.162985 107.032299 84.991842 100.752915 -4.990273 -23.277376 -0.321329 0.000795 -0.003866 0.000361
5.379786 126.366096 45.235469 171.735960 -17.955302 -3.533013 -0.114759 11.359124 3.065321 -0.023278 0.809622 0.218592 -0.045765 1.378921 0.372290 -0.132128 10.384559 2.812719 -1.220741 22.345201 -3.759246 -0.423471 -1.681058 -3.854236 8.167188 0.736016 -9.219708 7.599668 -36.509721 -38.561623 -114.817075 -53.679200 119.455513 -24.450781 -11.697147 -21.501353 -4.309536 5.602871 2.071803 13.482570 -40.342689 3.955856 110.437913 -54.359165 -115.939479 30.011966 -14.089727 9.870941 10.028190 -64.216056 -5.080997 -86.256122 79.114988 -79.274470 4.740660 7.873765 -16.561155 0.002158 -0.004892 0.000980 -22.478890 -64.506554 6.126067 107.243705 84.996829 100.983123 -4.973435 -23.267399 -0.312393 0.001343 -0.004428 0.000610
5.376386 126.364017 45.233147 171.731529 -17.941443 -3.542299 -0.124384 11.332186 3.070632 -0.029293 0.801227 0.219264 -0.046980 1.371372 0.374361 -0.141267 10.353807 2.834755 -1.224374 22.340459 -3.740107 -0.456539 -1.738077 -3.771842 8.172987 0.730260 -9.223607 7.634329 -36.511207 -38.590521 -114.803112 -53.701988 119.426972 -24.443965 -11.689192 -21.478866 -4.298917 5.612384 2.068754 13.431798 -40.369687 4.002601 110.345660 -54.328504 -115.843151 30.016192 -14.105092 9.910982 10.061076 -64.218825 -5.112428 -86.262870 79.120213 -79.267899 4.731156 7.873329 -16.549690 0.002945 -0.008174 0.001337 -22.451102 -64.531460 6.096124 107.412706 84.993955 101.171291 -4.972551 -23.221832 -0.300224 0.001457 -0.000444 0.000662
5.379160 126.361174 45.236581 171.718862 -17.908359 -3.586649 -0.124817 11.283471 3.114268 -0.034653 0.791720 0.219635 -0.048359 1.363230 0.377029 -0.143734 10.335860 2.856289 -1.221127 22.360595 -3.747142 -0.482600 -1.798916 -3.701211 8.175408 0.724912 -9.227914 7.668031 -36.517550 -38.619145 -114.803358 -53.731545 119.409981 -24.430519 -11.681471 -21.457745 -4.281464 5.646929 2.046029 13.372295 -40.407968 4.065014 110.301142 -54.312621 -115.805736 30.021626 -14.117321 9.909534 9.999725 -64.253147 -5.033728 -86.260276 79.123979 -79.265406 4.744470 7.876219 -16.542949 0.003140 -0.013870 0.001425 -22.514742 -64.559423 6.174258 107.548998 84.980868 101.327135 -4.967649 -23.206559 -0.293902 0.000167 0.003088 0.000076
